TITLE ""
FILE "2Q_j_1556-1569.mp3" MP3
  TRACK 01 AUDIO
    TITLE "2Q_j_1556-1569_01"
    INDEX 01 00:00:00
  TRACK 02 AUDIO
    TITLE "2Q_j_1556-1569_02"
    INDEX 01 00:00:12
  TRACK 03 AUDIO
    TITLE "2Q_j_1556-1569_03"
    INDEX 01 00:01:27
  TRACK 04 AUDIO
    TITLE "2Q_j_1556-1569_04"
    INDEX 01 00:02:05
  TRACK 05 AUDIO
    TITLE "2Q_j_1556-1569_05"
    INDEX 01 00:04:37
  TRACK 06 AUDIO
    TITLE "2Q_j_1556-1569_06"
    INDEX 01 00:05:06
  TRACK 07 AUDIO
    TITLE "2Q_j_1556-1569_07"
    INDEX 01 00:07:67
  TRACK 08 AUDIO
    TITLE "2Q_j_1556-1569_08"
    INDEX 01 00:08:41
  TRACK 09 AUDIO
    TITLE "2Q_j_1556-1569_09"
    INDEX 01 00:09:66
  TRACK 10 AUDIO
    TITLE "2Q_j_1556-1569_10"
    INDEX 01 00:10:36
  TRACK 11 AUDIO
    TITLE "2Q_j_1556-1569_11"
    INDEX 01 00:12:19
  TRACK 12 AUDIO
    TITLE "2Q_j_1556-1569_12"
    INDEX 01 00:12:64
  TRACK 13 AUDIO
    TITLE "2Q_j_1556-1569_13"
    INDEX 01 00:15:27
  TRACK 14 AUDIO
    TITLE "2Q_j_1556-1569_14"
    INDEX 01 00:15:75
  TRACK 15 AUDIO
    TITLE "2Q_j_1556-1569_15"
    INDEX 01 00:16:74
  TRACK 16 AUDIO
    TITLE "2Q_j_1556-1569_16"
    INDEX 01 00:17:56
  TRACK 17 AUDIO
    TITLE "2Q_j_1556-1569_17"
    INDEX 01 00:21:20
  TRACK 18 AUDIO
    TITLE "2Q_j_1556-1569_18"
    INDEX 01 00:21:65
  TRACK 19 AUDIO
    TITLE "2Q_j_1556-1569_19"
    INDEX 01 00:24:36
  TRACK 20 AUDIO
    TITLE "2Q_j_1556-1569_20"
    INDEX 01 00:25:08
  TRACK 21 AUDIO
    TITLE "2Q_j_1556-1569_21"
    INDEX 01 00:26:70
  TRACK 22 AUDIO
    TITLE "2Q_j_1556-1569_22"
    INDEX 01 00:27:44
  TRACK 23 AUDIO
    TITLE "2Q_j_1556-1569_23"
    INDEX 01 00:30:17
  TRACK 24 AUDIO
    TITLE "2Q_j_1556-1569_24"
    INDEX 01 00:30:64
  TRACK 25 AUDIO
    TITLE "2Q_j_1556-1569_25"
    INDEX 01 00:34:62
  TRACK 26 AUDIO
    TITLE "2Q_j_1556-1569_26"
    INDEX 01 00:35:32
  TRACK 27 AUDIO
    TITLE "2Q_j_1556-1569_27"
    INDEX 01 00:36:73
  TRACK 28 AUDIO
    TITLE "2Q_j_1556-1569_28"
    INDEX 01 00:37:49
  TRACK 29 AUDIO
    TITLE "2Q_j_1556-1569_29"
    INDEX 01 00:39:08
  TRACK 30 AUDIO
    TITLE "2Q_j_1556-1569_30"
    INDEX 01 00:39:51
  TRACK 31 AUDIO
    TITLE "2Q_j_1556-1569_31"
    INDEX 01 00:45:07
  TRACK 32 AUDIO
    TITLE "2Q_j_1556-1569_32"
    INDEX 01 00:45:54
  TRACK 33 AUDIO
    TITLE "2Q_j_1556-1569_33"
    INDEX 01 00:47:33
  TRACK 34 AUDIO
    TITLE "2Q_j_1556-1569_34"
    INDEX 01 00:48:03
  TRACK 35 AUDIO
    TITLE "2Q_j_1556-1569_35"
    INDEX 01 00:49:44
  TRACK 36 AUDIO
    TITLE "2Q_j_1556-1569_36"
    INDEX 01 00:50:18
  TRACK 37 AUDIO
    TITLE "2Q_j_1556-1569_37"
    INDEX 01 00:55:41
  TRACK 38 AUDIO
    TITLE "2Q_j_1556-1569_38"
    INDEX 01 00:56:11
  TRACK 39 AUDIO
    TITLE "2Q_j_1556-1569_39"
    INDEX 01 00:57:34
  TRACK 40 AUDIO
    TITLE "2Q_j_1556-1569_40"
    INDEX 01 00:58:04
  TRACK 41 AUDIO
    TITLE "2Q_j_1556-1569_41"
    INDEX 01 00:59:72
  TRACK 42 AUDIO
    TITLE "2Q_j_1556-1569_42"
    INDEX 01 01:00:44
  TRACK 43 AUDIO
    TITLE "2Q_j_1556-1569_43"
    INDEX 01 01:05:41
  TRACK 44 AUDIO
    TITLE "2Q_j_1556-1569_44"
    INDEX 01 01:06:11
  TRACK 45 AUDIO
    TITLE "2Q_j_1556-1569_45"
    INDEX 01 01:07:52
  TRACK 46 AUDIO
    TITLE "2Q_j_1556-1569_46"
    INDEX 01 01:08:24
  TRACK 47 AUDIO
    TITLE "2Q_j_1556-1569_47"
    INDEX 01 01:12:37
  TRACK 48 AUDIO
    TITLE "2Q_j_1556-1569_48"
    INDEX 01 01:13:09
  TRACK 49 AUDIO
    TITLE "2Q_j_1556-1569_49"
    INDEX 01 01:16:47
  TRACK 50 AUDIO
    TITLE "2Q_j_1556-1569_50"
    INDEX 01 01:17:29
  TRACK 51 AUDIO
    TITLE "2Q_j_1556-1569_51"
    INDEX 01 01:18:67
  TRACK 52 AUDIO
    TITLE "2Q_j_1556-1569_52"
    INDEX 01 01:19:37
  TRACK 53 AUDIO
    TITLE "2Q_j_1556-1569_53"
    INDEX 01 01:20:45
  TRACK 54 AUDIO
    TITLE "2Q_j_1556-1569_54"
    INDEX 01 01:21:15
  TRACK 55 AUDIO
    TITLE "2Q_j_1556-1569_55"
    INDEX 01 01:24:66
  TRACK 56 AUDIO
    TITLE "2Q_j_1556-1569_56"
    INDEX 01 01:25:40
  TRACK 57 AUDIO
    TITLE "2Q_j_1556-1569_57"
    INDEX 01 01:26:61
  TRACK 58 AUDIO
    TITLE "2Q_j_1556-1569_58"
    INDEX 01 01:27:33
  TRACK 59 AUDIO
    TITLE "2Q_j_1556-1569_59"
    INDEX 01 01:28:52
  TRACK 60 AUDIO
    TITLE "2Q_j_1556-1569_60"
    INDEX 01 01:29:24
  TRACK 61 AUDIO
    TITLE "2Q_j_1556-1569_61"
    INDEX 01 01:34:41
  TRACK 62 AUDIO
    TITLE "2Q_j_1556-1569_62"
    INDEX 01 01:35:19
  TRACK 63 AUDIO
    TITLE "2Q_j_1556-1569_63"
    INDEX 01 01:36:46
  TRACK 64 AUDIO
    TITLE "2Q_j_1556-1569_64"
    INDEX 01 01:37:16
  TRACK 65 AUDIO
    TITLE "2Q_j_1556-1569_65"
    INDEX 01 01:42:17
  TRACK 66 AUDIO
    TITLE "2Q_j_1556-1569_66"
    INDEX 01 01:42:60
  TRACK 67 AUDIO
    TITLE "2Q_j_1556-1569_67"
    INDEX 01 01:46:67
  TRACK 68 AUDIO
    TITLE "2Q_j_1556-1569_68"
    INDEX 01 01:47:39
  TRACK 69 AUDIO
    TITLE "2Q_j_1556-1569_69"
    INDEX 01 01:49:48
  TRACK 70 AUDIO
    TITLE "2Q_j_1556-1569_70"
    INDEX 01 01:50:18
  TRACK 71 AUDIO
    TITLE "2Q_j_1556-1569_71"
    INDEX 01 01:52:49
  TRACK 72 AUDIO
    TITLE "2Q_j_1556-1569_72"
    INDEX 01 01:53:17
  TRACK 73 AUDIO
    TITLE "2Q_j_1556-1569_73"
    INDEX 01 01:57:42
  TRACK 74 AUDIO
    TITLE "2Q_j_1556-1569_74"
    INDEX 01 01:58:20
  TRACK 75 AUDIO
    TITLE "2Q_j_1556-1569_75"
    INDEX 01 01:59:39
  TRACK 76 AUDIO
    TITLE "2Q_j_1556-1569_76"
    INDEX 01 02:00:13
  TRACK 77 AUDIO
    TITLE "2Q_j_1556-1569_77"
    INDEX 01 02:02:23
  TRACK 78 AUDIO
    TITLE "2Q_j_1556-1569_78"
    INDEX 01 02:02:68
  TRACK 79 AUDIO
    TITLE "2Q_j_1556-1569_79"
    INDEX 01 02:06:62
  TRACK 80 AUDIO
    TITLE "2Q_j_1556-1569_80"
    INDEX 01 02:07:34
  TRACK 81 AUDIO
    TITLE "2Q_j_1556-1569_81"
    INDEX 01 02:09:18
  TRACK 82 AUDIO
    TITLE "2Q_j_1556-1569_82"
    INDEX 01 02:09:67
  TRACK 83 AUDIO
    TITLE "2Q_j_1556-1569_83"
    INDEX 01 02:12:36
  TRACK 84 AUDIO
    TITLE "2Q_j_1556-1569_84"
    INDEX 01 02:13:10
  TRACK 85 AUDIO
    TITLE "2Q_j_1556-1569_85"
    INDEX 01 02:18:22
